<?xml version="1.0" encoding="iso-8859-1"?>
<!-- Uploaded to: SVG Repo, www.svgrepo.com, Generator: SVG Repo Mixer Tools -->
<svg height="800px" width="800px" version="1.1" id="Layer_1" xmlns="http://www.w3.org/2000/svg" xmlns:xlink="http://www.w3.org/1999/xlink" 
	 viewBox="0 0 512 512" xml:space="preserve">
<g>
	<path style="fill:#5EDAFF;" d="M269.112,17.373l-11.46-12.406v418.992l11.963-16.57c8.512-11.79,17.461-19.677,26.126-27.315
		c21.232-18.676,39.569-34.806,39.569-103.154c0-42.504-10.6-109.416-26.378-166.503C296.226,64.461,282.083,31.418,269.112,17.373z
		"/>
	<path style="fill:#5EDAFF;" d="M183.994,198.899c-1.867,11.777-3.397,23.134-4.546,33.752l-0.34,3.144l27.738,27.749
		c0.401,0.401,0.484,0.854,0.484,1.165c0,0.247-0.053,0.582-0.275,0.912l-5.954,3.969l20.971,21.859l4.536-5.959
		c0.382-0.338,0.802-0.411,1.094-0.411c0.314,0,0.771,0.084,1.165,0.476l25.48,25.482v-56.618l-68.325-68.324L183.994,198.899z"/>
</g>
<g>
	<path style="fill:#ADEBFF;" d="M226.537,287.895c-0.609-0.609-0.641-1.592-0.073-2.242l-19.705-19.713
		c-0.363,0.348-0.787,0.422-1.078,0.422c-0.311,0-0.761-0.081-1.166-0.489l-26.036-26.018l-0.97,14.517
		c-0.543,8.124-0.818,15.711-0.818,22.55c0,68.347,18.337,84.478,39.583,103.165c8.653,7.627,17.601,15.513,26.113,27.303
		l11.961,16.569V315.717L226.537,287.895z"/>
	<path style="fill:#ADEBFF;" d="M254.348,4.967l-11.46,12.407c-12.972,14.045-27.114,47.089-39.821,93.047
		c-5.901,21.381-11.301,45.027-15.62,68.382l-0.632,3.417l67.533,67.518V4.967z"/>
</g>
<path d="M221.492,281.303c0.11-0.143,0.242-0.286,0.374-0.418c3.226-3.215,8.445-3.215,11.671,0l14.204,14.204v-37.932
	l-57.223-57.223c-1.828,11.528-3.347,22.748-4.503,33.429l25.501,25.512c3.226,3.226,3.226,8.445,0,11.671
	c-0.055,0.055-0.121,0.121-0.187,0.165c-1.575,1.508-3.612,2.257-5.649,2.257c-2.114,0-4.228-0.804-5.836-2.422L184.1,254.811
	c-0.529,7.906-0.804,15.327-0.804,22.11c0,65.36,16.472,79.85,37.326,98.194c8.721,7.686,18.168,16.01,27.119,28.408v-85.069
	l-25.875-25.886C218.773,289.473,218.652,284.551,221.492,281.303z M318.475,107.784c15.999,57.862,26.745,125.831,26.745,169.136
	c0,72.825-20.854,91.18-42.931,110.603c-13.202,11.605-26.833,23.618-38.031,49.647v66.571c0,4.558-3.7,8.258-8.258,8.258
	c-4.558,0-8.258-3.7-8.258-8.258v-66.571c-11.198-26.029-24.829-38.042-38.031-49.647C187.634,368.1,166.78,349.746,166.78,276.92
	c0-12.024,0.837-25.952,2.367-41.037c0.022-0.187,0.033-0.374,0.055-0.562c1.74-16.802,4.349-35.025,7.674-53.655
	c0.033-0.22,0.066-0.451,0.121-0.672c4.393-24.521,10.02-49.703,16.527-73.21c19.5-70.579,40.233-106.793,61.616-107.74
	C255.427,0.011,255.714,0,256,0c0.286,0,0.573,0.011,0.859,0.044C278.242,0.991,298.975,37.205,318.475,107.784z M328.704,276.92
	c0-41.962-10.504-108.17-26.14-164.743c-15.14-54.756-29.101-80.356-38.306-90.321v231.875v61.297v88.493
	c8.952-12.398,18.399-20.722,27.119-28.408C312.232,356.77,328.704,342.28,328.704,276.92z M247.742,233.791V21.856
	c-9.205,9.965-23.167,35.565-38.306,90.321c-6.023,21.823-11.286,45.078-15.492,67.826L247.742,233.791z"/>
</svg>